<svg width="7413" height="8921" viewBox="0 0 7413 8921" fill="none" xmlns="http://www.w3.org/2000/svg">
<ellipse cx="3706.5" cy="4460.5" rx="3706.5" ry="4460.5" fill="#FFE458"/>
<ellipse cx="3706.5" cy="3359.5" rx="2604.5" ry="2570.5" fill="#FFF4BD"/>
<ellipse cx="3706.5" cy="4729.5" rx="422.5" ry="391.5" fill="#FE5A5A"/>
<rect x="3090" y="4695" width="1233" height="35" fill="black"/>
<ellipse cx="5123" cy="3187" rx="994" ry="1051" fill="black"/>
<ellipse cx="2290" cy="3187" rx="994" ry="1051" fill="black"/>
<ellipse cx="5727.5" cy="3348" rx="320.5" ry="371" fill="white"/>
<ellipse cx="5077.5" cy="3839.5" rx="263.5" ry="235.5" fill="white"/>
<ellipse cx="2185.5" cy="3839.5" rx="263.5" ry="235.5" fill="white"/>
<rect x="955" y="1397.15" width="80" height="1565" transform="rotate(-22.9126 955 1397.15)" fill="black"/>
<rect x="1503" y="1637.15" width="80" height="1565" transform="rotate(-22.9126 1503 1637.15)" fill="black"/>
<rect x="2051" y="1877.15" width="80" height="1565" transform="rotate(-22.9126 2051 1877.15)" fill="black"/>
<rect x="6639.5" y="1520" width="80" height="1565" transform="rotate(35.6216 6639.5 1520)" fill="black"/>
<rect x="5982.5" y="1683" width="80" height="1565" transform="rotate(35.6216 5982.5 1683)" fill="black"/>
<rect x="5406.5" y="1807" width="80" height="1565" transform="rotate(35.6216 5406.5 1807)" fill="black"/>
<ellipse cx="1879" cy="2976.5" rx="491" ry="531.5" fill="white"/>
<ellipse cx="2769.5" cy="3348" rx="320.5" ry="371" fill="white"/>
<ellipse cx="4814" cy="2976.5" rx="491" ry="531.5" fill="white"/>
<ellipse cx="2369.5" cy="4730" rx="651.5" ry="500" fill="#FFD7D7"/>
<ellipse cx="5237.5" cy="4730" rx="651.5" ry="500" fill="#FFD7D7"/>
</svg>
