<svg width="7375" height="7908" viewBox="0 0 7375 7908" fill="none" xmlns="http://www.w3.org/2000/svg">
<ellipse cx="2629.65" cy="2840.06" rx="1953.21" ry="2307.59" transform="rotate(20.1914 2629.65 2840.06)" fill="#78EFFF"/>
<ellipse cx="4403.54" cy="3124.62" rx="2285" ry="2393" transform="rotate(20.1914 4403.54 3124.62)" fill="#AEF5FF"/>
<ellipse cx="3198.5" cy="5246" rx="3135.5" ry="2319" fill="#FFD600"/>
<rect x="4404" y="3315" width="753" height="4033" rx="376.5" fill="black"/>
<rect x="5694" y="4207" width="479" height="2148" rx="239.5" fill="black"/>
<rect x="1490" y="3144" width="765" height="4204" rx="382.5" fill="black"/>
<rect x="2907" y="2927" width="845" height="4707" rx="422.5" fill="black"/>
<path d="M7167.15 5279L6328.15 5578.87L6326.15 4984.78L7167.15 5279Z" fill="black"/>
<ellipse cx="811" cy="4921" rx="577" ry="714" fill="black"/>
<ellipse cx="592.5" cy="4646.5" rx="245.5" ry="274.5" fill="white"/>
<ellipse cx="1083.5" cy="4971.5" rx="245.5" ry="274.5" fill="white"/>
<ellipse cx="683" cy="5246" rx="155" ry="186" fill="white"/>
<rect x="1240.85" y="4015" width="91" height="631.729" transform="rotate(14.2582 1240.85 4015)" fill="black"/>
<rect x="347" y="6114" width="464" height="34" fill="black"/>
<rect width="26.505" height="147.654" transform="matrix(-0.894017 -0.448032 -0.448032 0.894017 848.85 6027.45)" fill="black"/>
<line x1="1431.48" y1="7119.13" x2="1329.48" y2="7485.13" stroke="black"/>
<line x1="1873.5" y1="7302" x2="1873.5" y2="7565" stroke="black"/>
<line x1="3199.46" y1="7565.19" x2="3055.46" y2="7907.19" stroke="black"/>
<line x1="3638.5" y1="7633.98" x2="3649.5" y2="7906.98" stroke="black"/>
<line x1="4677.5" y1="7302.01" x2="4666.5" y2="7770.01" stroke="black"/>
<line x1="5043.49" y1="7118.89" x2="5157.49" y2="7633.89" stroke="black"/>
</svg>
