<svg width="7739" height="5954" viewBox="0 0 7739 5954" fill="none" xmlns="http://www.w3.org/2000/svg">
<ellipse cx="5597" cy="4366.5" rx="1656" ry="1587.5" fill="#AD00FF"/>
<ellipse cx="1971" cy="4366.5" rx="1656" ry="1587.5" fill="#AD00FF"/>
<ellipse cx="5768.5" cy="2201.5" rx="1970.5" ry="1924.5" fill="#BD00FF"/>
<ellipse cx="1970.5" cy="2201.5" rx="1970.5" ry="1924.5" fill="#BD00FF"/>
<ellipse cx="3797.5" cy="3440.5" rx="462.5" ry="2364.5" fill="#966539"/>
<ellipse cx="1838" cy="2202" rx="1085" ry="1068" fill="#EABCFF"/>
<ellipse cx="5927" cy="2202" rx="1085" ry="1068" fill="#EABCFF"/>
<ellipse cx="5768.5" cy="4989" rx="707.5" ry="668" fill="#C751FF"/>
<ellipse cx="1826.5" cy="4989" rx="707.5" ry="668" fill="#C751FF"/>
<ellipse cx="1837.5" cy="2202" rx="462.5" ry="468" fill="white"/>
<ellipse cx="5926.5" cy="2202" rx="462.5" ry="468" fill="white"/>
<ellipse cx="5768.5" cy="4988.5" rx="396.5" ry="402.5" fill="#DDC3E9"/>
<ellipse cx="1771.5" cy="4988.5" rx="396.5" ry="402.5" fill="#DDC3E9"/>
<rect x="4069.35" y="32" width="193" height="1588" transform="rotate(9.80198 4069.35 32)" fill="#966539"/>
<rect x="3432.36" y="39.6997" width="193" height="1588" transform="rotate(-11.6542 3432.36 39.6997)" fill="#966539"/>
</svg>
