<svg width="5369" height="4449" viewBox="0 0 5369 4449" fill="none" xmlns="http://www.w3.org/2000/svg">
<ellipse cx="2621.5" cy="2524.5" rx="2621.5" ry="1924.5" fill="#4EC94B"/>
<ellipse cx="1079.5" cy="1008" rx="1079.5" ry="1008" fill="#4EC94B"/>
<ellipse cx="4289.5" cy="1008" rx="1079.5" ry="1008" fill="#4EC94B"/>
<ellipse cx="1177" cy="1279.5" rx="708" ry="736.5" fill="white"/>
<ellipse cx="4204" cy="1279.5" rx="708" ry="736.5" fill="white"/>
<ellipse cx="1176.5" cy="1280" rx="302.5" ry="308" fill="black"/>
<ellipse cx="4203.5" cy="1280" rx="302.5" ry="308" fill="black"/>
<path d="M4506 2535.5C4506 2736.09 4457.7 2934.72 4363.84 3120.05C4269.99 3305.37 4132.44 3473.76 3959.02 3615.61C3785.61 3757.45 3579.74 3869.96 3353.16 3946.73C3126.59 4023.49 2883.74 4063 2638.5 4063C2393.26 4063 2150.41 4023.49 1923.84 3946.73C1697.26 3869.96 1491.39 3757.45 1317.98 3615.61C1144.56 3473.76 1007.01 3305.37 913.155 3120.05C819.304 2934.72 771 2736.09 771 2535.5L2638.5 2535.5H4506Z" fill="#B64040"/>
<ellipse cx="2639" cy="3623.5" rx="600" ry="439.5" fill="#C14444"/>
<line x1="2622.5" y1="3184" x2="2622.5" y2="3901" stroke="black"/>
</svg>
