<svg width="9373" height="6534" viewBox="0 0 9373 6534" fill="none" xmlns="http://www.w3.org/2000/svg">
<ellipse cx="2391.03" cy="3171.94" rx="1462.5" ry="2834.5" transform="rotate(21.2674 2391.03 3171.94)" fill="#D2BC6C"/>
<ellipse cx="7071.92" cy="3189.22" rx="1462.5" ry="2834.5" transform="rotate(-18.8774 7071.92 3189.22)" fill="#D2BC6C"/>
<ellipse cx="6913.63" cy="3112.56" rx="1128.79" ry="2347.62" transform="rotate(-18.8774 6913.63 3112.56)" fill="#FF9696"/>
<ellipse cx="2390.65" cy="3171.53" rx="1128.79" ry="2347.62" transform="rotate(21.3705 2390.65 3171.53)" fill="#FF9696"/>
<ellipse cx="4770.5" cy="3639.5" rx="3082.5" ry="2894.5" fill="#E6CC73"/>
<ellipse cx="2915.25" cy="2779.3" rx="1019.5" ry="1578.82" transform="rotate(21.6073 2915.25 2779.3)" fill="#816C43"/>
<ellipse cx="6604.77" cy="4475.25" rx="1019.5" ry="1578.82" transform="rotate(26.6151 6604.77 4475.25)" fill="#816C43"/>
<ellipse cx="3733.8" cy="1929.18" rx="965" ry="1341" transform="rotate(79.9516 3733.8 1929.18)" fill="#816C43"/>
<line x1="4776" y1="4799.9" x2="4787" y2="5357.9" stroke="black" stroke-width="10"/>
<line x1="4782" y1="5363" x2="4444" y2="5363" stroke="black" stroke-width="10"/>
<line x1="4441.78" y1="5362.48" x2="4294.78" y2="5289.48" stroke="black" stroke-width="10"/>
<line x1="4782" y1="5353" x2="5086" y2="5353" stroke="black" stroke-width="10"/>
<line x1="5084.23" y1="5353.32" x2="5277.23" y2="5280.32" stroke="black" stroke-width="10"/>
<ellipse cx="4781.5" cy="5526.5" rx="157.5" ry="205.5" fill="#EE6565"/>
<line x1="4771.5" y1="5357.98" x2="4782.5" y2="5698.98" stroke="black"/>
<path d="M4770.5 4623L4906.9 4864.5H4634.1L4770.5 4623Z" fill="#E99E9E"/>
<path d="M7309 3966.5C7309 4437.88 6912.55 4820 6423.5 4820C5934.45 4820 5538 4437.88 5538 3966.5C5538 3495.12 5934.45 3113 6423.5 3113C6912.55 3113 7309 3495.12 7309 3966.5Z" fill="black"/>
<path d="M7309 3966.5C7309 4437.88 6912.55 4820 6423.5 4820C5934.45 4820 5538 4437.88 5538 3966.5C5538 3495.12 5934.45 3113 6423.5 3113C6912.55 3113 7309 3495.12 7309 3966.5Z" fill="black"/>
<path d="M7309 3966.5C7309 4437.88 6912.55 4820 6423.5 4820C5934.45 4820 5538 4437.88 5538 3966.5C5538 3495.12 5934.45 3113 6423.5 3113C6912.55 3113 7309 3495.12 7309 3966.5Z" fill="black"/>
<path d="M7309 3966.5C7309 4437.88 6912.55 4820 6423.5 4820C5934.45 4820 5538 4437.88 5538 3966.5C5538 3495.12 5934.45 3113 6423.5 3113C6912.55 3113 7309 3495.12 7309 3966.5Z" fill="black"/>
<path d="M7309 3966.5C7309 4437.88 6912.55 4820 6423.5 4820C5934.45 4820 5538 4437.88 5538 3966.5C5538 3495.12 5934.45 3113 6423.5 3113C6912.55 3113 7309 3495.12 7309 3966.5Z" fill="black"/>
<path d="M4016 3966.5C4016 4437.88 3619.55 4820 3130.5 4820C2641.45 4820 2245 4437.88 2245 3966.5C2245 3495.12 2641.45 3113 3130.5 3113C3619.55 3113 4016 3495.12 4016 3966.5Z" fill="black"/>
<path d="M4016 3966.5C4016 4437.88 3619.55 4820 3130.5 4820C2641.45 4820 2245 4437.88 2245 3966.5C2245 3495.12 2641.45 3113 3130.5 3113C3619.55 3113 4016 3495.12 4016 3966.5Z" fill="black"/>
<path d="M4016 3966.5C4016 4437.88 3619.55 4820 3130.5 4820C2641.45 4820 2245 4437.88 2245 3966.5C2245 3495.12 2641.45 3113 3130.5 3113C3619.55 3113 4016 3495.12 4016 3966.5Z" fill="black"/>
<path d="M4016 3966.5C4016 4437.88 3619.55 4820 3130.5 4820C2641.45 4820 2245 4437.88 2245 3966.5C2245 3495.12 2641.45 3113 3130.5 3113C3619.55 3113 4016 3495.12 4016 3966.5Z" fill="black"/>
<path d="M4016 3966.5C4016 4437.88 3619.55 4820 3130.5 4820C2641.45 4820 2245 4437.88 2245 3966.5C2245 3495.12 2641.45 3113 3130.5 3113C3619.55 3113 4016 3495.12 4016 3966.5Z" fill="black"/>
<ellipse cx="3611.5" cy="4064" rx="332.5" ry="352" fill="white"/>
<ellipse cx="3611.5" cy="4064" rx="332.5" ry="352" fill="white"/>
<ellipse cx="3611.5" cy="4064" rx="332.5" ry="352" fill="white"/>
<ellipse cx="3611.5" cy="4064" rx="332.5" ry="352" fill="white"/>
<ellipse cx="2993.5" cy="4415.5" rx="285.5" ry="279.5" fill="white"/>
<ellipse cx="2993.5" cy="4415.5" rx="285.5" ry="279.5" fill="white"/>
<ellipse cx="2993.5" cy="4415.5" rx="285.5" ry="279.5" fill="white"/>
<ellipse cx="2993.5" cy="4415.5" rx="285.5" ry="279.5" fill="white"/>
<ellipse cx="6295.5" cy="4415.5" rx="285.5" ry="279.5" fill="white"/>
<ellipse cx="6295.5" cy="4415.5" rx="285.5" ry="279.5" fill="white"/>
<ellipse cx="6295.5" cy="4415.5" rx="285.5" ry="279.5" fill="white"/>
<ellipse cx="6295.5" cy="4415.5" rx="285.5" ry="279.5" fill="white"/>
<ellipse cx="6913.5" cy="4064" rx="332.5" ry="352" fill="white"/>
<ellipse cx="6913.5" cy="4064" rx="332.5" ry="352" fill="white"/>
<ellipse cx="6913.5" cy="4064" rx="332.5" ry="352" fill="white"/>
<ellipse cx="6913.5" cy="4064" rx="332.5" ry="352" fill="white"/>
<ellipse cx="6103.5" cy="3712" rx="411.5" ry="394" fill="white"/>
<ellipse cx="6103.5" cy="3712" rx="411.5" ry="394" fill="white"/>
<ellipse cx="6103.5" cy="3712" rx="411.5" ry="394" fill="white"/>
<ellipse cx="6103.5" cy="3712" rx="411.5" ry="394" fill="white"/>
<rect x="7204.17" y="3045" width="106" height="618" transform="rotate(28.004 7204.17 3045)" fill="black"/>
<rect x="7204.17" y="3045" width="106" height="618" transform="rotate(28.004 7204.17 3045)" fill="black"/>
<rect x="7204.17" y="3045" width="106" height="618" transform="rotate(28.004 7204.17 3045)" fill="black"/>
<rect x="2150" y="3091.88" width="106" height="522.595" transform="rotate(-26.2481 2150 3091.88)" fill="black"/>
<rect x="2150" y="3091.88" width="106" height="522.595" transform="rotate(-26.2481 2150 3091.88)" fill="black"/>
<rect x="2150" y="3091.88" width="106" height="522.595" transform="rotate(-26.2481 2150 3091.88)" fill="black"/>
<ellipse cx="2802.5" cy="3712" rx="411.5" ry="394" fill="white"/>
<ellipse cx="2802.5" cy="3712" rx="411.5" ry="394" fill="white"/>
<ellipse cx="2802.5" cy="3712" rx="411.5" ry="394" fill="white"/>
<ellipse cx="2802.5" cy="3712" rx="411.5" ry="394" fill="white"/>
</svg>
